G04*
G04 #@! TF.GenerationSoftware,Altium Limited,Altium Designer,19.0.15 (446)*
G04*
G04 Layer_Physical_Order=2*
G04 Layer_Color=32768*
%FSLAX25Y25*%
%MOIN*%
G70*
G01*
G75*
%ADD45C,0.01500*%
%ADD50C,0.04000*%
G04:AMPARAMS|DCode=51|XSize=112.362mil|YSize=112.362mil|CornerRadius=0mil|HoleSize=0mil|Usage=FLASHONLY|Rotation=0.000|XOffset=0mil|YOffset=0mil|HoleType=Round|Shape=Relief|Width=25mil|Gap=10mil|Entries=4|*
%AMTHD51*
7,0,0,0.11236,0.09236,0.02500,45*
%
%ADD51THD51*%
%ADD52C,0.11874*%
%ADD53C,0.09236*%
%ADD54C,0.12661*%
%ADD55C,0.05181*%
D45*
X182125Y160625D02*
X182225D01*
X172000Y182200D02*
X172600D01*
X196744Y100000D02*
X197500D01*
D50*
X-2000Y-2000D02*
Y307000D01*
X367213D01*
Y-2000D02*
Y307000D01*
X-2000Y-2000D02*
X367213D01*
D51*
X294039Y201000D02*
D03*
Y171000D02*
D03*
X334039D02*
D03*
Y201000D02*
D03*
X294500Y134000D02*
D03*
Y104000D02*
D03*
X334500D02*
D03*
Y134000D02*
D03*
X68000Y84000D02*
D03*
Y114000D02*
D03*
X28000D02*
D03*
Y84000D02*
D03*
D52*
X309000Y186000D02*
D03*
X309461Y119000D02*
D03*
X53039Y99000D02*
D03*
D53*
X294539Y280000D02*
D03*
Y240000D02*
D03*
X334539D02*
D03*
Y280000D02*
D03*
X294400Y60300D02*
D03*
Y20300D02*
D03*
X334400D02*
D03*
Y60300D02*
D03*
X68000Y155000D02*
D03*
Y195000D02*
D03*
X28000D02*
D03*
Y155000D02*
D03*
D54*
X309500Y260000D02*
D03*
X309361Y40300D02*
D03*
X53039Y175000D02*
D03*
D55*
X163400Y167200D02*
D03*
X139300Y155900D02*
D03*
X139379Y132400D02*
D03*
X140900Y149200D02*
D03*
X147300Y152300D02*
D03*
X134700Y156900D02*
D03*
X137200Y183268D02*
D03*
X144400Y186400D02*
D03*
X154000Y140500D02*
D03*
X199100Y155900D02*
D03*
Y151200D02*
D03*
X198400Y202200D02*
D03*
Y206200D02*
D03*
X268400Y113200D02*
D03*
X266300Y210400D02*
D03*
X199900Y184300D02*
D03*
X200800Y133200D02*
D03*
X142000Y126500D02*
D03*
X149500Y149300D02*
D03*
X164766Y159470D02*
D03*
X132080Y137500D02*
D03*
X167079Y221600D02*
D03*
X146900Y193200D02*
D03*
X114100Y196400D02*
D03*
X131000Y198230D02*
D03*
X129000Y207000D02*
D03*
X137300Y197500D02*
D03*
X140800Y193600D02*
D03*
X153915Y116685D02*
D03*
X122900Y128900D02*
D03*
X103300Y170516D02*
D03*
X137700Y207100D02*
D03*
X130100Y164220D02*
D03*
X128600Y167978D02*
D03*
X193400Y148500D02*
D03*
X196700D02*
D03*
X167000Y138900D02*
D03*
X167500Y147700D02*
D03*
X196400Y199660D02*
D03*
X193100Y199700D02*
D03*
X133267Y174400D02*
D03*
X175449Y159800D02*
D03*
X157947Y181325D02*
D03*
X133700Y170600D02*
D03*
M02*
