G04*
G04 #@! TF.GenerationSoftware,Altium Limited,Altium Designer,19.0.15 (446)*
G04*
G04 Layer_Color=8388736*
%FSLAX25Y25*%
%MOIN*%
G70*
G01*
G75*
%ADD27R,0.13780X0.13780*%
%ADD28R,0.02047X0.04409*%
%ADD29R,0.04409X0.02047*%
%ADD30R,0.06706X0.03162*%
%ADD31R,0.12020X0.20288*%
%ADD32R,0.10446X0.10052*%
%ADD33R,0.03556X0.05918*%
%ADD34R,0.05918X0.03556*%
%ADD35R,0.05131X0.06312*%
%ADD36R,0.05131X0.11036*%
%ADD37R,0.07099X0.10249*%
%ADD38R,0.06312X0.05131*%
%ADD39R,0.05131X0.07493*%
%ADD40C,0.08654*%
%ADD41C,0.04737*%
%ADD42C,0.05131*%
D27*
X149000Y168500D02*
D03*
D28*
X142110Y178087D02*
D03*
X144079D02*
D03*
X146047D02*
D03*
X148016D02*
D03*
X149984D02*
D03*
X151953D02*
D03*
X153921D02*
D03*
X155890D02*
D03*
Y158913D02*
D03*
X153921D02*
D03*
X151953D02*
D03*
X149984D02*
D03*
X148016D02*
D03*
X146047D02*
D03*
X144079D02*
D03*
X142110D02*
D03*
D29*
X158587Y175390D02*
D03*
Y173421D02*
D03*
Y171453D02*
D03*
Y169484D02*
D03*
Y167516D02*
D03*
Y165547D02*
D03*
Y163579D02*
D03*
Y161610D02*
D03*
X139413D02*
D03*
Y163579D02*
D03*
Y165547D02*
D03*
Y167516D02*
D03*
Y169484D02*
D03*
Y171453D02*
D03*
Y173421D02*
D03*
Y175390D02*
D03*
D30*
X194930Y145200D02*
D03*
Y140200D02*
D03*
Y135200D02*
D03*
Y130200D02*
D03*
X173670D02*
D03*
Y135200D02*
D03*
Y140200D02*
D03*
Y145200D02*
D03*
X194560Y196333D02*
D03*
Y191333D02*
D03*
Y186333D02*
D03*
Y181333D02*
D03*
X173300D02*
D03*
Y186333D02*
D03*
Y191333D02*
D03*
Y196333D02*
D03*
D31*
X249020Y125000D02*
D03*
X206500D02*
D03*
X208440Y195000D02*
D03*
X250960D02*
D03*
D32*
X269000Y144205D02*
D03*
Y119795D02*
D03*
X268500Y178091D02*
D03*
Y202500D02*
D03*
D33*
X124660Y133500D02*
D03*
X132140D02*
D03*
X133340Y192100D02*
D03*
X125860D02*
D03*
X146300Y110000D02*
D03*
X153780D02*
D03*
X132140Y142100D02*
D03*
X124660D02*
D03*
X124700Y124700D02*
D03*
X132180D02*
D03*
D34*
X148100Y129840D02*
D03*
Y122360D02*
D03*
X120400Y210640D02*
D03*
Y203160D02*
D03*
X146800Y189860D02*
D03*
Y197340D02*
D03*
X139400Y135960D02*
D03*
Y143440D02*
D03*
X148100Y135960D02*
D03*
Y143440D02*
D03*
X129160Y203160D02*
D03*
Y210640D02*
D03*
X137900Y203160D02*
D03*
Y210640D02*
D03*
X146900Y210640D02*
D03*
Y203160D02*
D03*
X155500Y210640D02*
D03*
Y203160D02*
D03*
X117400Y123260D02*
D03*
Y130740D02*
D03*
X103400Y175760D02*
D03*
Y183240D02*
D03*
D35*
X128100Y159700D02*
D03*
X122195D02*
D03*
X122147Y174100D02*
D03*
X128053D02*
D03*
X118295Y167200D02*
D03*
X124200D02*
D03*
X131000Y181500D02*
D03*
X125094D02*
D03*
X163853Y188700D02*
D03*
X157947D02*
D03*
X158095Y152000D02*
D03*
X164000D02*
D03*
D36*
X183385Y206400D02*
D03*
X194015D02*
D03*
X184400Y155700D02*
D03*
X195030D02*
D03*
D37*
X171100Y89700D02*
D03*
X159880D02*
D03*
X179400Y229000D02*
D03*
X168180D02*
D03*
D38*
X170999Y170753D02*
D03*
Y164847D02*
D03*
D39*
X121823Y151500D02*
D03*
X132453D02*
D03*
D40*
X294039Y201000D02*
D03*
Y171000D02*
D03*
X334039D02*
D03*
Y201000D02*
D03*
X294500Y134000D02*
D03*
Y104000D02*
D03*
X334500D02*
D03*
Y134000D02*
D03*
X294539Y280000D02*
D03*
Y240000D02*
D03*
X334539D02*
D03*
Y280000D02*
D03*
X294400Y60300D02*
D03*
Y20300D02*
D03*
X334400D02*
D03*
Y60300D02*
D03*
X68000Y84000D02*
D03*
Y114000D02*
D03*
X28000D02*
D03*
Y84000D02*
D03*
X68000Y155000D02*
D03*
Y195000D02*
D03*
X28000D02*
D03*
Y155000D02*
D03*
D41*
X309000Y186000D02*
D03*
X309461Y119000D02*
D03*
X53039Y99000D02*
D03*
D42*
X309500Y260000D02*
D03*
X309361Y40300D02*
D03*
X53039Y175000D02*
D03*
M02*
