G04*
G04 #@! TF.GenerationSoftware,Altium Limited,Altium Designer,19.0.15 (446)*
G04*
G04 Layer_Physical_Order=3*
G04 Layer_Color=128*
%FSLAX25Y25*%
%MOIN*%
G70*
G01*
G75*
%ADD50C,0.04000*%
G04:AMPARAMS|DCode=51|XSize=112.362mil|YSize=112.362mil|CornerRadius=0mil|HoleSize=0mil|Usage=FLASHONLY|Rotation=0.000|XOffset=0mil|YOffset=0mil|HoleType=Round|Shape=Relief|Width=25mil|Gap=10mil|Entries=4|*
%AMTHD51*
7,0,0,0.11236,0.09236,0.02500,45*
%
%ADD51THD51*%
%ADD52C,0.11874*%
%ADD53C,0.09236*%
%ADD54C,0.12661*%
%ADD55C,0.05181*%
D50*
X-2000Y-2000D02*
Y307000D01*
X367213D01*
Y-2000D02*
Y307000D01*
X-2000Y-2000D02*
X367213D01*
D51*
X68000Y155000D02*
D03*
Y195000D02*
D03*
X28000D02*
D03*
Y155000D02*
D03*
D52*
X309000Y186000D02*
D03*
X309461Y119000D02*
D03*
X53039Y99000D02*
D03*
D53*
X294039Y201000D02*
D03*
Y171000D02*
D03*
X334039D02*
D03*
Y201000D02*
D03*
X294500Y134000D02*
D03*
Y104000D02*
D03*
X334500D02*
D03*
Y134000D02*
D03*
X294539Y280000D02*
D03*
Y240000D02*
D03*
X334539D02*
D03*
Y280000D02*
D03*
X294400Y60300D02*
D03*
Y20300D02*
D03*
X334400D02*
D03*
Y60300D02*
D03*
X68000Y84000D02*
D03*
Y114000D02*
D03*
X28000D02*
D03*
Y84000D02*
D03*
D54*
X309500Y260000D02*
D03*
X309361Y40300D02*
D03*
X53039Y175000D02*
D03*
D55*
X163400Y167200D02*
D03*
X139300Y155900D02*
D03*
X139379Y132400D02*
D03*
X140900Y149200D02*
D03*
X147300Y152300D02*
D03*
X134700Y156900D02*
D03*
X280300Y169200D02*
D03*
X280700Y175500D02*
D03*
Y182200D02*
D03*
X271300Y169600D02*
D03*
X281900Y135700D02*
D03*
Y141700D02*
D03*
X276600Y143600D02*
D03*
X282100Y146200D02*
D03*
X185000Y145700D02*
D03*
X179800Y196100D02*
D03*
X184700Y196000D02*
D03*
X184500Y191400D02*
D03*
X137200Y183268D02*
D03*
X147400Y183300D02*
D03*
X144400Y186400D02*
D03*
X185000Y140900D02*
D03*
X181900Y143800D02*
D03*
X182200Y193700D02*
D03*
Y189000D02*
D03*
X154000Y140500D02*
D03*
X268400Y113200D02*
D03*
X266300Y210400D02*
D03*
X182200Y198800D02*
D03*
X179700Y201400D02*
D03*
X199900Y184300D02*
D03*
X200800Y133200D02*
D03*
X142000Y126500D02*
D03*
X149500Y149300D02*
D03*
X164766Y159470D02*
D03*
X132080Y137500D02*
D03*
X121400Y185900D02*
D03*
X167079Y221600D02*
D03*
X146900Y193200D02*
D03*
X114100Y196400D02*
D03*
X131000Y198230D02*
D03*
X129000Y207000D02*
D03*
X137300Y197500D02*
D03*
X122900Y128900D02*
D03*
X103300Y170516D02*
D03*
X147800Y213500D02*
D03*
X137700Y207100D02*
D03*
X181900Y148700D02*
D03*
X180900Y153500D02*
D03*
X181900Y137700D02*
D03*
X179200Y140800D02*
D03*
X179700Y187000D02*
D03*
Y191400D02*
D03*
X113700Y170400D02*
D03*
X117000Y140900D02*
D03*
X111400Y141063D02*
D03*
X118295Y152600D02*
D03*
Y158591D02*
D03*
X128600Y167978D02*
D03*
X146400Y168200D02*
D03*
X151600D02*
D03*
X149000D02*
D03*
X150300Y165200D02*
D03*
X147700D02*
D03*
Y171200D02*
D03*
X167000Y138900D02*
D03*
X167500Y147700D02*
D03*
X186590Y229900D02*
D03*
X133267Y174400D02*
D03*
X175449Y159800D02*
D03*
X178079Y90100D02*
D03*
X157947Y181325D02*
D03*
X133700Y170600D02*
D03*
M02*
