G04*
G04 #@! TF.GenerationSoftware,Altium Limited,Altium Designer,19.0.15 (446)*
G04*
G04 Layer_Color=8421504*
%FSLAX25Y25*%
%MOIN*%
G70*
G01*
G75*
%ADD14R,0.12992X0.12992*%
%ADD15R,0.01024X0.03386*%
%ADD16R,0.03386X0.01024*%
%ADD17R,0.05906X0.02362*%
%ADD18R,0.11221X0.19488*%
%ADD19R,0.09646X0.09252*%
%ADD20R,0.02756X0.05118*%
%ADD21R,0.05118X0.02756*%
%ADD22R,0.04331X0.05512*%
%ADD23R,0.04331X0.10236*%
%ADD24R,0.06299X0.09449*%
%ADD25R,0.05512X0.04331*%
%ADD26R,0.04331X0.06693*%
D14*
X149000Y168500D02*
D03*
D15*
X142110Y178087D02*
D03*
X144079D02*
D03*
X146047D02*
D03*
X148016D02*
D03*
X149984D02*
D03*
X151953D02*
D03*
X153921D02*
D03*
X155890D02*
D03*
Y158913D02*
D03*
X153921D02*
D03*
X151953D02*
D03*
X149984D02*
D03*
X148016D02*
D03*
X146047D02*
D03*
X144079D02*
D03*
X142110D02*
D03*
D16*
X158587Y175390D02*
D03*
Y173421D02*
D03*
Y171453D02*
D03*
Y169484D02*
D03*
Y167516D02*
D03*
Y165547D02*
D03*
Y163579D02*
D03*
Y161610D02*
D03*
X139413D02*
D03*
Y163579D02*
D03*
Y165547D02*
D03*
Y167516D02*
D03*
Y169484D02*
D03*
Y171453D02*
D03*
Y173421D02*
D03*
Y175390D02*
D03*
D17*
X194930Y145200D02*
D03*
Y140200D02*
D03*
Y135200D02*
D03*
Y130200D02*
D03*
X173670D02*
D03*
Y135200D02*
D03*
Y140200D02*
D03*
Y145200D02*
D03*
X194560Y196333D02*
D03*
Y191333D02*
D03*
Y186333D02*
D03*
Y181333D02*
D03*
X173300D02*
D03*
Y186333D02*
D03*
Y191333D02*
D03*
Y196333D02*
D03*
D18*
X249020Y125000D02*
D03*
X206500D02*
D03*
X208440Y195000D02*
D03*
X250960D02*
D03*
D19*
X269000Y144205D02*
D03*
Y119795D02*
D03*
X268500Y178091D02*
D03*
Y202500D02*
D03*
D20*
X124660Y133500D02*
D03*
X132140D02*
D03*
X133340Y192100D02*
D03*
X125860D02*
D03*
X146300Y110000D02*
D03*
X153780D02*
D03*
X132140Y142100D02*
D03*
X124660D02*
D03*
X124700Y124700D02*
D03*
X132180D02*
D03*
D21*
X148100Y129840D02*
D03*
Y122360D02*
D03*
X120400Y210640D02*
D03*
Y203160D02*
D03*
X146800Y189860D02*
D03*
Y197340D02*
D03*
X139400Y135960D02*
D03*
Y143440D02*
D03*
X148100Y135960D02*
D03*
Y143440D02*
D03*
X129160Y203160D02*
D03*
Y210640D02*
D03*
X137900Y203160D02*
D03*
Y210640D02*
D03*
X146900Y210640D02*
D03*
Y203160D02*
D03*
X155500Y210640D02*
D03*
Y203160D02*
D03*
X117400Y123260D02*
D03*
Y130740D02*
D03*
X103400Y175760D02*
D03*
Y183240D02*
D03*
D22*
X128100Y159700D02*
D03*
X122195D02*
D03*
X122147Y174100D02*
D03*
X128053D02*
D03*
X118295Y167200D02*
D03*
X124200D02*
D03*
X131000Y181500D02*
D03*
X125094D02*
D03*
X163853Y188700D02*
D03*
X157947D02*
D03*
X158095Y152000D02*
D03*
X164000D02*
D03*
D23*
X183385Y206400D02*
D03*
X194015D02*
D03*
X184400Y155700D02*
D03*
X195030D02*
D03*
D24*
X171100Y89700D02*
D03*
X159880D02*
D03*
X179400Y229000D02*
D03*
X168180D02*
D03*
D25*
X170999Y170753D02*
D03*
Y164847D02*
D03*
D26*
X121823Y151500D02*
D03*
X132453D02*
D03*
M02*
