G04*
G04 #@! TF.GenerationSoftware,Altium Limited,Altium Designer,19.0.15 (446)*
G04*
G04 Layer_Color=65535*
%FSLAX25Y25*%
%MOIN*%
G70*
G01*
G75*
%ADD10C,0.00787*%
%ADD11C,0.00500*%
%ADD12C,0.00394*%
%ADD13C,0.01000*%
D10*
X137976Y177949D02*
G03*
X137976Y177949I-394J0D01*
G01*
X170717Y147759D02*
X176623D01*
X178001Y128054D02*
Y147346D01*
Y128054D02*
X190599D01*
Y147346D01*
X178001D02*
X190599D01*
X170347Y198892D02*
X176253D01*
X177631Y179187D02*
Y198478D01*
Y179187D02*
X190229D01*
Y198478D01*
X177631D02*
X190229D01*
X203153Y100394D02*
X252366D01*
X203153Y149606D02*
X252366D01*
X205094Y219606D02*
X254306D01*
X205094Y170394D02*
X254306D01*
X277465Y117630D02*
Y146370D01*
X260535Y115169D02*
Y146370D01*
X260035Y175925D02*
Y204665D01*
X276965Y175925D02*
Y207126D01*
X121707Y129169D02*
Y137831D01*
X135093Y129169D02*
Y137831D01*
X121707Y129169D02*
X135093D01*
X121707Y137831D02*
X135093D01*
X136293Y187769D02*
Y196431D01*
X122907Y187769D02*
Y196431D01*
X136293D01*
X122907Y187769D02*
X136293D01*
X143769Y132793D02*
X152431D01*
X143769Y119407D02*
X152431D01*
X143769D02*
Y132793D01*
X152431Y119407D02*
Y132793D01*
X116069Y213593D02*
X124731D01*
X116069Y200207D02*
X124731D01*
X116069D02*
Y213593D01*
X124731Y200207D02*
Y213593D01*
X143347Y105669D02*
Y114331D01*
X156733Y105669D02*
Y114331D01*
X143347Y105669D02*
X156733D01*
X143347Y114331D02*
X156733D01*
X142469Y186907D02*
X151131D01*
X142469Y200293D02*
X151131D01*
Y186907D02*
Y200293D01*
X142469Y186907D02*
Y200293D01*
X135069Y133007D02*
X143731D01*
X135069Y146393D02*
X143731D01*
Y133007D02*
Y146393D01*
X135069Y133007D02*
Y146393D01*
X143769Y133007D02*
X152431D01*
X143769Y146393D02*
X152431D01*
Y133007D02*
Y146393D01*
X143769Y133007D02*
Y146393D01*
X135093Y137769D02*
Y146431D01*
X121707Y137769D02*
Y146431D01*
X135093D01*
X121707Y137769D02*
X135093D01*
X124829Y200207D02*
X133491D01*
X124829Y213593D02*
X133491D01*
Y200207D02*
Y213593D01*
X124829Y200207D02*
Y213593D01*
X133569Y200207D02*
X142231D01*
X133569Y213593D02*
X142231D01*
Y200207D02*
Y213593D01*
X133569Y200207D02*
Y213593D01*
X142569D02*
X151231D01*
X142569Y200207D02*
X151231D01*
X142569D02*
Y213593D01*
X151231Y200207D02*
Y213593D01*
X151169D02*
X159831D01*
X151169Y200207D02*
X159831D01*
X151169D02*
Y213593D01*
X159831Y200207D02*
Y213593D01*
X113069Y120307D02*
X121731D01*
X113069Y133693D02*
X121731D01*
Y120307D02*
Y133693D01*
X113069Y120307D02*
Y133693D01*
X121747Y120369D02*
Y129031D01*
X135133Y120369D02*
Y129031D01*
X121747Y120369D02*
X135133D01*
X121747Y129031D02*
X135133D01*
X99069Y172807D02*
X107731D01*
X99069Y186193D02*
X107731D01*
Y172807D02*
Y186193D01*
X99069Y172807D02*
Y186193D01*
X187125Y211124D02*
X190275D01*
X187125Y201676D02*
X190275D01*
X188140Y160424D02*
X191290D01*
X188140Y150976D02*
X191290D01*
X164506Y85369D02*
X166474D01*
X164506Y94031D02*
X166474D01*
Y85369D02*
Y94031D01*
X172806Y224669D02*
X174774D01*
X172806Y233331D02*
X174774D01*
Y224669D02*
Y233331D01*
X125563Y154453D02*
X128713D01*
X125563Y148547D02*
X128713D01*
X63787Y216286D02*
X65120D01*
X64454D01*
Y212287D01*
X63787D01*
X65120D01*
X67120D02*
Y216286D01*
X69785Y212287D01*
Y216286D01*
X129000Y74100D02*
Y78823D01*
X131361D01*
X132149Y78036D01*
Y76461D01*
X131361Y75674D01*
X129000D01*
X136084Y78823D02*
X134510D01*
X133723Y78036D01*
Y74887D01*
X134510Y74100D01*
X136084D01*
X136872Y74887D01*
Y78036D01*
X136084Y78823D01*
X138446D02*
Y74100D01*
X140020Y75674D01*
X141594Y74100D01*
Y78823D01*
X146317D02*
X143169D01*
Y74100D01*
X146317D01*
X143169Y76461D02*
X144743D01*
X147891Y74100D02*
Y78823D01*
X150253D01*
X151040Y78036D01*
Y76461D01*
X150253Y75674D01*
X147891D01*
X149466D02*
X151040Y74100D01*
X160486Y78036D02*
X159699Y78823D01*
X158124D01*
X157337Y78036D01*
Y74887D01*
X158124Y74100D01*
X159699D01*
X160486Y74887D01*
Y76461D01*
X158912D01*
X164422Y78823D02*
X162847D01*
X162060Y78036D01*
Y74887D01*
X162847Y74100D01*
X164422D01*
X165209Y74887D01*
Y78036D01*
X164422Y78823D01*
X169144D02*
X167570D01*
X166783Y78036D01*
Y74887D01*
X167570Y74100D01*
X169144D01*
X169932Y74887D01*
Y78036D01*
X169144Y78823D01*
X171506D02*
Y74100D01*
X173867D01*
X174654Y74887D01*
Y78036D01*
X173867Y78823D01*
X171506D01*
X180952Y74100D02*
X182526D01*
X181739D01*
Y78823D01*
X180952Y78036D01*
X147200Y241200D02*
Y245923D01*
X149561D01*
X150349Y245136D01*
Y243561D01*
X149561Y242774D01*
X147200D01*
X154284Y245923D02*
X152710D01*
X151923Y245136D01*
Y241987D01*
X152710Y241200D01*
X154284D01*
X155071Y241987D01*
Y245136D01*
X154284Y245923D01*
X156646D02*
Y241200D01*
X158220Y242774D01*
X159794Y241200D01*
Y245923D01*
X164517D02*
X161369D01*
Y241200D01*
X164517D01*
X161369Y243561D02*
X162943D01*
X166092Y241200D02*
Y245923D01*
X168453D01*
X169240Y245136D01*
Y243561D01*
X168453Y242774D01*
X166092D01*
X167666D02*
X169240Y241200D01*
X178686Y245136D02*
X177899Y245923D01*
X176324D01*
X175537Y245136D01*
Y241987D01*
X176324Y241200D01*
X177899D01*
X178686Y241987D01*
Y243561D01*
X177112D01*
X182622Y245923D02*
X181047D01*
X180260Y245136D01*
Y241987D01*
X181047Y241200D01*
X182622D01*
X183409Y241987D01*
Y245136D01*
X182622Y245923D01*
X187345D02*
X185770D01*
X184983Y245136D01*
Y241987D01*
X185770Y241200D01*
X187345D01*
X188132Y241987D01*
Y245136D01*
X187345Y245923D01*
X189706D02*
Y241200D01*
X192067D01*
X192854Y241987D01*
Y245136D01*
X192067Y245923D01*
X189706D01*
X202300Y241200D02*
X199152D01*
X202300Y244349D01*
Y245136D01*
X201513Y245923D01*
X199939D01*
X199152Y245136D01*
X64149Y132936D02*
X63361Y133723D01*
X61787D01*
X61000Y132936D01*
Y129787D01*
X61787Y129000D01*
X63361D01*
X64149Y129787D01*
Y131361D01*
X62574D01*
X65723Y129000D02*
Y133723D01*
X68871Y129000D01*
Y133723D01*
X70446D02*
Y129000D01*
X72807D01*
X73594Y129787D01*
Y132936D01*
X72807Y133723D01*
X70446D01*
X299461Y82523D02*
X297887D01*
X297100Y81736D01*
Y78587D01*
X297887Y77800D01*
X299461D01*
X300249Y78587D01*
Y81736D01*
X299461Y82523D01*
X301823D02*
Y78587D01*
X302610Y77800D01*
X304184D01*
X304972Y78587D01*
Y82523D01*
X306546D02*
X309694D01*
X308120D01*
Y77800D01*
X315991D02*
X317566D01*
X316779D01*
Y82523D01*
X315991Y81736D01*
X307149Y153936D02*
X306361Y154723D01*
X304787D01*
X304000Y153936D01*
Y150787D01*
X304787Y150000D01*
X306361D01*
X307149Y150787D01*
Y152361D01*
X305574D01*
X308723Y150000D02*
Y154723D01*
X311872Y150000D01*
Y154723D01*
X313446D02*
Y150000D01*
X315807D01*
X316594Y150787D01*
Y153936D01*
X315807Y154723D01*
X313446D01*
X308149Y219436D02*
X307361Y220223D01*
X305787D01*
X305000Y219436D01*
Y216287D01*
X305787Y215500D01*
X307361D01*
X308149Y216287D01*
Y217861D01*
X306574D01*
X309723Y215500D02*
Y220223D01*
X312872Y215500D01*
Y220223D01*
X314446D02*
Y215500D01*
X316807D01*
X317594Y216287D01*
Y219436D01*
X316807Y220223D01*
X314446D01*
X301361Y301723D02*
X299787D01*
X299000Y300936D01*
Y297787D01*
X299787Y297000D01*
X301361D01*
X302149Y297787D01*
Y300936D01*
X301361Y301723D01*
X303723D02*
Y297787D01*
X304510Y297000D01*
X306084D01*
X306872Y297787D01*
Y301723D01*
X308446D02*
X311594D01*
X310020D01*
Y297000D01*
X321040D02*
X317892D01*
X321040Y300149D01*
Y300936D01*
X320253Y301723D01*
X318679D01*
X317892Y300936D01*
D11*
X139157Y158658D02*
Y160035D01*
Y158658D02*
X140535D01*
X158843D02*
Y160035D01*
X157465Y158658D02*
X158843D01*
Y176965D02*
Y178342D01*
X157465D02*
X158843D01*
X139157D02*
X140535D01*
X139157Y176965D02*
Y178342D01*
D12*
X287347Y162378D02*
X362150D01*
X287347D02*
Y209622D01*
X362150D01*
Y162378D02*
Y209622D01*
X287807Y95378D02*
X362610D01*
X287807D02*
Y142622D01*
X362610D01*
Y95378D02*
Y142622D01*
X287846Y290000D02*
X362650D01*
Y230000D02*
Y290000D01*
X287846Y230000D02*
X362650D01*
X287846D02*
Y290000D01*
X287707Y70300D02*
X362510D01*
Y10300D02*
Y70300D01*
X287707Y10300D02*
X362510D01*
X287707D02*
Y70300D01*
X-110Y122622D02*
X74693D01*
Y75378D02*
Y122622D01*
X-110Y75378D02*
X74693D01*
X-110D02*
Y122622D01*
Y145000D02*
X74693D01*
X-110D02*
Y205000D01*
X74693D01*
Y145000D02*
Y205000D01*
D13*
X109666Y159632D02*
X108999Y160299D01*
X107667D01*
X107000Y159632D01*
Y156966D01*
X107667Y156300D01*
X108999D01*
X109666Y156966D01*
X113664Y160299D02*
X110999D01*
Y158299D01*
X112332Y158966D01*
X112998D01*
X113664Y158299D01*
Y156966D01*
X112998Y156300D01*
X111665D01*
X110999Y156966D01*
X95900Y188400D02*
Y192399D01*
X97899D01*
X98566Y191732D01*
Y190399D01*
X97899Y189733D01*
X95900D01*
X97233D02*
X98566Y188400D01*
X99899D02*
X101232D01*
X100565D01*
Y192399D01*
X99899Y191732D01*
X165000Y221099D02*
Y217100D01*
X167666D01*
X171665Y221099D02*
X168999D01*
Y217100D01*
X171665D01*
X168999Y219099D02*
X170332D01*
X172997Y221099D02*
Y217100D01*
X174997D01*
X175663Y217766D01*
Y220432D01*
X174997Y221099D01*
X172997D01*
X179662Y217100D02*
X176996D01*
X179662Y219766D01*
Y220432D01*
X178996Y221099D01*
X177663D01*
X176996Y220432D01*
X140079Y93699D02*
Y89700D01*
X142745D01*
X146744Y93699D02*
X144078D01*
Y89700D01*
X146744D01*
X144078Y91699D02*
X145411D01*
X148077Y93699D02*
Y89700D01*
X150076D01*
X150743Y90366D01*
Y93032D01*
X150076Y93699D01*
X148077D01*
X152076Y89700D02*
X153409D01*
X152742D01*
Y93699D01*
X152076Y93032D01*
X125700Y114100D02*
Y118099D01*
X127699D01*
X128366Y117432D01*
Y116099D01*
X127699Y115433D01*
X125700D01*
X127033D02*
X128366Y114100D01*
X129699Y117432D02*
X130365Y118099D01*
X131698D01*
X132364Y117432D01*
Y116766D01*
X131698Y116099D01*
X131032D01*
X131698D01*
X132364Y115433D01*
Y114767D01*
X131698Y114100D01*
X130365D01*
X129699Y114767D01*
X103600Y124100D02*
Y128099D01*
X105599D01*
X106266Y127432D01*
Y126099D01*
X105599Y125433D01*
X103600D01*
X104933D02*
X106266Y124100D01*
X110265D02*
X107599D01*
X110265Y126766D01*
Y127432D01*
X109598Y128099D01*
X108265D01*
X107599Y127432D01*
X108366Y167132D02*
X107699Y167799D01*
X106367D01*
X105700Y167132D01*
Y164467D01*
X106367Y163800D01*
X107699D01*
X108366Y164467D01*
X109699Y163800D02*
X111032D01*
X110365D01*
Y167799D01*
X109699Y167132D01*
X113031Y163800D02*
X114364D01*
X113697D01*
Y167799D01*
X113031Y167132D01*
X3666Y132999D02*
X2333D01*
X2999D01*
Y129666D01*
X2333Y129000D01*
X1667D01*
X1000Y129666D01*
X7665Y129000D02*
X4999D01*
X7665Y131666D01*
Y132332D01*
X6998Y132999D01*
X5665D01*
X4999Y132332D01*
X3666Y215499D02*
X2333D01*
X2999D01*
Y212166D01*
X2333Y211500D01*
X1667D01*
X1000Y212166D01*
X4999Y211500D02*
X6332D01*
X5665D01*
Y215499D01*
X4999Y214832D01*
X161600Y176899D02*
Y173566D01*
X162267Y172900D01*
X163599D01*
X164266Y173566D01*
Y176899D01*
X165599Y172900D02*
X166932D01*
X166265D01*
Y176899D01*
X165599Y176232D01*
X157500Y215900D02*
X153501D01*
Y217899D01*
X154168Y218566D01*
X155501D01*
X156167Y217899D01*
Y215900D01*
Y217233D02*
X157500Y218566D01*
Y219899D02*
Y221232D01*
Y220565D01*
X153501D01*
X154168Y219899D01*
X153501Y225897D02*
X154168Y224564D01*
X155501Y223231D01*
X156834D01*
X157500Y223897D01*
Y225230D01*
X156834Y225897D01*
X156167D01*
X155501Y225230D01*
Y223231D01*
X148700Y215700D02*
X144701D01*
Y217699D01*
X145368Y218366D01*
X146701D01*
X147367Y217699D01*
Y215700D01*
Y217033D02*
X148700Y218366D01*
Y219699D02*
Y221032D01*
Y220365D01*
X144701D01*
X145368Y219699D01*
X144701Y225697D02*
Y223031D01*
X146701D01*
X146034Y224364D01*
Y225030D01*
X146701Y225697D01*
X148033D01*
X148700Y225030D01*
Y223697D01*
X148033Y223031D01*
X139900Y215700D02*
X135901D01*
Y217699D01*
X136568Y218366D01*
X137901D01*
X138567Y217699D01*
Y215700D01*
Y217033D02*
X139900Y218366D01*
Y219699D02*
Y221032D01*
Y220365D01*
X135901D01*
X136568Y219699D01*
X139900Y225030D02*
X135901D01*
X137901Y223031D01*
Y225697D01*
X131100Y215700D02*
X127101D01*
Y217699D01*
X127768Y218366D01*
X129101D01*
X129767Y217699D01*
Y215700D01*
Y217033D02*
X131100Y218366D01*
Y219699D02*
Y221032D01*
Y220365D01*
X127101D01*
X127768Y219699D01*
Y223031D02*
X127101Y223697D01*
Y225030D01*
X127768Y225697D01*
X128434D01*
X129101Y225030D01*
Y224364D01*
Y225030D01*
X129767Y225697D01*
X130433D01*
X131100Y225030D01*
Y223697D01*
X130433Y223031D01*
X113100Y142700D02*
Y146699D01*
X115099D01*
X115766Y146032D01*
Y144699D01*
X115099Y144033D01*
X113100D01*
X114433D02*
X115766Y142700D01*
X119764Y146699D02*
X117099D01*
Y144699D01*
X118432Y145366D01*
X119098D01*
X119764Y144699D01*
Y143367D01*
X119098Y142700D01*
X117765D01*
X117099Y143367D01*
X155200Y138000D02*
Y141999D01*
X157199D01*
X157866Y141332D01*
Y139999D01*
X157199Y139333D01*
X155200D01*
X156533D02*
X157866Y138000D01*
X161864Y141999D02*
X160532Y141332D01*
X159199Y139999D01*
Y138666D01*
X159865Y138000D01*
X161198D01*
X161864Y138666D01*
Y139333D01*
X161198Y139999D01*
X159199D01*
X137200Y148350D02*
Y152349D01*
X139199D01*
X139866Y151682D01*
Y150349D01*
X139199Y149683D01*
X137200D01*
X138533D02*
X139866Y148350D01*
X143198D02*
Y152349D01*
X141199Y150349D01*
X143865D01*
X153300Y194200D02*
Y198199D01*
X155299D01*
X155966Y197532D01*
Y196199D01*
X155299Y195533D01*
X153300D01*
X154633D02*
X155966Y194200D01*
X157299D02*
X158632D01*
X157965D01*
Y198199D01*
X157299Y197532D01*
X160631D02*
X161297Y198199D01*
X162630D01*
X163297Y197532D01*
Y194867D01*
X162630Y194200D01*
X161297D01*
X160631Y194867D01*
Y197532D01*
X159900Y108000D02*
Y111999D01*
X161899D01*
X162566Y111332D01*
Y109999D01*
X161899Y109333D01*
X159900D01*
X161233D02*
X162566Y108000D01*
X163899Y108667D02*
X164565Y108000D01*
X165898D01*
X166565Y108667D01*
Y111332D01*
X165898Y111999D01*
X164565D01*
X163899Y111332D01*
Y110666D01*
X164565Y109999D01*
X166565D01*
X121900Y215900D02*
X117901D01*
Y217899D01*
X118568Y218566D01*
X119901D01*
X120567Y217899D01*
Y215900D01*
Y217233D02*
X121900Y218566D01*
Y219899D02*
Y221232D01*
Y220565D01*
X117901D01*
X118568Y219899D01*
X121900Y225897D02*
Y223231D01*
X119234Y225897D01*
X118568D01*
X117901Y225230D01*
Y223897D01*
X118568Y223231D01*
X154600Y124500D02*
Y128499D01*
X156599D01*
X157266Y127832D01*
Y126499D01*
X156599Y125833D01*
X154600D01*
X155933D02*
X157266Y124500D01*
X158599D02*
X159932D01*
X159265D01*
Y128499D01*
X158599Y127832D01*
X161931Y124500D02*
X163264D01*
X162597D01*
Y128499D01*
X161931Y127832D01*
X114100Y189200D02*
Y193199D01*
X116099D01*
X116766Y192532D01*
Y191199D01*
X116099Y190533D01*
X114100D01*
X115433D02*
X116766Y189200D01*
X118099Y192532D02*
X118765Y193199D01*
X120098D01*
X120765Y192532D01*
Y191866D01*
X120098Y191199D01*
X120765Y190533D01*
Y189866D01*
X120098Y189200D01*
X118765D01*
X118099Y189866D01*
Y190533D01*
X118765Y191199D01*
X118099Y191866D01*
Y192532D01*
X118765Y191199D02*
X120098D01*
X113000Y135900D02*
Y139899D01*
X114999D01*
X115666Y139232D01*
Y137899D01*
X114999Y137233D01*
X113000D01*
X114333D02*
X115666Y135900D01*
X116999Y139899D02*
X119665D01*
Y139232D01*
X116999Y136566D01*
Y135900D01*
X172066Y202267D02*
Y204932D01*
X171399Y205599D01*
X170066D01*
X169400Y204932D01*
Y202267D01*
X170066Y201600D01*
X171399D01*
X170733Y202933D02*
X172066Y201600D01*
X171399D02*
X172066Y202267D01*
X176065Y201600D02*
X173399D01*
X176065Y204266D01*
Y204932D01*
X175398Y205599D01*
X174065D01*
X173399Y204932D01*
X177966Y122366D02*
Y125032D01*
X177299Y125699D01*
X175967D01*
X175300Y125032D01*
Y122366D01*
X175967Y121700D01*
X177299D01*
X176633Y123033D02*
X177966Y121700D01*
X177299D02*
X177966Y122366D01*
X179299Y121700D02*
X180632D01*
X179965D01*
Y125699D01*
X179299Y125032D01*
X223500Y229499D02*
Y225500D01*
X226166D01*
X230165D02*
X227499D01*
X230165Y228166D01*
Y228832D01*
X229498Y229499D01*
X228165D01*
X227499Y228832D01*
X225800Y159999D02*
Y156000D01*
X228466D01*
X229799D02*
X231132D01*
X230465D01*
Y159999D01*
X229799Y159332D01*
X356666Y220999D02*
X355333D01*
X355999D01*
Y217666D01*
X355333Y217000D01*
X354666D01*
X354000Y217666D01*
X360665Y220999D02*
X359332Y220332D01*
X357999Y218999D01*
Y217666D01*
X358665Y217000D01*
X359998D01*
X360665Y217666D01*
Y218333D01*
X359998Y218999D01*
X357999D01*
X355666Y301999D02*
X354333D01*
X354999D01*
Y298666D01*
X354333Y298000D01*
X353666D01*
X353000Y298666D01*
X359665Y301999D02*
X356999D01*
Y299999D01*
X358332Y300666D01*
X358998D01*
X359665Y299999D01*
Y298666D01*
X358998Y298000D01*
X357665D01*
X356999Y298666D01*
X357666Y153999D02*
X356333D01*
X356999D01*
Y150666D01*
X356333Y150000D01*
X355666D01*
X355000Y150666D01*
X360998Y150000D02*
Y153999D01*
X358999Y151999D01*
X361665D01*
X356066Y82599D02*
X354733D01*
X355399D01*
Y79266D01*
X354733Y78600D01*
X354066D01*
X353400Y79266D01*
X357399Y81932D02*
X358065Y82599D01*
X359398D01*
X360065Y81932D01*
Y81266D01*
X359398Y80599D01*
X358732D01*
X359398D01*
X360065Y79933D01*
Y79266D01*
X359398Y78600D01*
X358065D01*
X357399Y79266D01*
X113166Y183332D02*
X112499Y183999D01*
X111167D01*
X110500Y183332D01*
Y180666D01*
X111167Y180000D01*
X112499D01*
X113166Y180666D01*
X114499Y180000D02*
X115832D01*
X115165D01*
Y183999D01*
X114499Y183332D01*
X120497Y180000D02*
X117831D01*
X120497Y182666D01*
Y183332D01*
X119830Y183999D01*
X118497D01*
X117831Y183332D01*
X266066Y215332D02*
X265399Y215999D01*
X264066D01*
X263400Y215332D01*
Y212666D01*
X264066Y212000D01*
X265399D01*
X266066Y212666D01*
X267399Y212000D02*
X268732D01*
X268065D01*
Y215999D01*
X267399Y215332D01*
X270731D02*
X271397Y215999D01*
X272730D01*
X273397Y215332D01*
Y212666D01*
X272730Y212000D01*
X271397D01*
X270731Y212666D01*
Y215332D01*
X267566Y155932D02*
X266899Y156599D01*
X265566D01*
X264900Y155932D01*
Y153267D01*
X265566Y152600D01*
X266899D01*
X267566Y153267D01*
X268899Y156599D02*
X271565D01*
Y155932D01*
X268899Y153267D01*
Y152600D01*
X163871Y183732D02*
X163204Y184399D01*
X161871D01*
X161205Y183732D01*
Y181067D01*
X161871Y180400D01*
X163204D01*
X163871Y181067D01*
X165203D02*
X165870Y180400D01*
X167203D01*
X167869Y181067D01*
Y183732D01*
X167203Y184399D01*
X165870D01*
X165203Y183732D01*
Y183066D01*
X165870Y182399D01*
X167869D01*
X170666Y155332D02*
X169999Y155999D01*
X168667D01*
X168000Y155332D01*
Y152666D01*
X168667Y152000D01*
X169999D01*
X170666Y152666D01*
X171999Y155332D02*
X172665Y155999D01*
X173998D01*
X174664Y155332D01*
Y154666D01*
X173998Y153999D01*
X174664Y153333D01*
Y152666D01*
X173998Y152000D01*
X172665D01*
X171999Y152666D01*
Y153333D01*
X172665Y153999D01*
X171999Y154666D01*
Y155332D01*
X172665Y153999D02*
X173998D01*
X190766Y166632D02*
X190099Y167299D01*
X188767D01*
X188100Y166632D01*
Y163967D01*
X188767Y163300D01*
X190099D01*
X190766Y163967D01*
X192099Y163300D02*
X193432D01*
X192765D01*
Y167299D01*
X192099Y166632D01*
X187966Y217332D02*
X187299Y217999D01*
X185967D01*
X185300Y217332D01*
Y214666D01*
X185967Y214000D01*
X187299D01*
X187966Y214666D01*
X191964Y217999D02*
X190632Y217332D01*
X189299Y215999D01*
Y214666D01*
X189965Y214000D01*
X191298D01*
X191964Y214666D01*
Y215333D01*
X191298Y215999D01*
X189299D01*
X178165Y169632D02*
X177498Y170299D01*
X176165D01*
X175499Y169632D01*
Y166966D01*
X176165Y166300D01*
X177498D01*
X178165Y166966D01*
X181497Y166300D02*
Y170299D01*
X179498Y168299D01*
X182163D01*
X112566Y176732D02*
X111899Y177399D01*
X110566D01*
X109900Y176732D01*
Y174066D01*
X110566Y173400D01*
X111899D01*
X112566Y174066D01*
X113899Y176732D02*
X114565Y177399D01*
X115898D01*
X116565Y176732D01*
Y176066D01*
X115898Y175399D01*
X115232D01*
X115898D01*
X116565Y174733D01*
Y174066D01*
X115898Y173400D01*
X114565D01*
X113899Y174066D01*
X110466Y153032D02*
X109799Y153699D01*
X108466D01*
X107800Y153032D01*
Y150366D01*
X108466Y149700D01*
X109799D01*
X110466Y150366D01*
X114464Y149700D02*
X111799D01*
X114464Y152366D01*
Y153032D01*
X113798Y153699D01*
X112465D01*
X111799Y153032D01*
M02*
