M48
;Layer_Color=9474304
;FILE_FORMAT=2:5
INCH,LZ
;TYPE=PLATED
T1F00S00C0.01181
T2F00S00C0.05236
;TYPE=NON_PLATED
T3F00S00C0.07874
T4F00S00C0.08661
%
T01
X02567Y01135
X0256Y02029
X01733Y02088
X0170047Y02091
X01625Y02116
X01626Y02035
X01595
X01655Y01933
X0162Y0181
X01625Y01729
X01659Y01644
X01561Y01618
X015628Y01499
X01526Y01429
X01582Y01337
X01581Y01298
X0161591Y01305
X01637Y0133
X01607Y01359
X01721Y01406
X01757Y01409
X01763Y01447
X01765Y01485
X018146Y01584
X01838Y01647
X01808Y01741
X01886Y01768
X01825Y01838
X01751Y01837
X01515Y01796
X0152057Y01747
X01455Y0174647
X0146Y01796
X0141Y01855
X01427Y01931
X01335Y01817
X013323Y0172228
X0134702Y0169502
X01305Y0174713
X01268Y0174647
X0125464Y0197353
X01398Y01636
X01414Y01603
X01485Y01564
X01506Y00995
X01367Y00931
X01793Y00921
X01741Y02125
X01742Y02165
X01629
X0147416Y02343
X01398Y02489
X01844Y02487
T02
X02945Y00295
X03345
Y00695
Y01025
Y01325
Y0167
Y0197
X02945
Y0167
Y01325
Y01025
Y00695
X00705Y0096
Y0126
Y01675
Y02075
X00305
Y01675
Y0126
Y0096
X02945Y0234
X03345
Y0274
X02945
T03
X0309461Y01175
Y0182
X0055539Y0111
T04
X0309461Y00495
X0055539Y01875
X0309461Y0254
M30
