M48
;Layer_Color=9474304
;FILE_FORMAT=2:5
INCH,LZ
;TYPE=PLATED
T1F00S00C0.01181
T2F00S00C0.05236
;TYPE=NON_PLATED
T3F00S00C0.07874
T4F00S00C0.08661
%
T01
X0178079Y00901
X02684Y01132
X02819Y01357
Y01417
X02821Y01462
X02766Y01436
X02803Y01692
X02807Y01755
Y01822
X02713Y01696
X02663Y02104
X01984Y02062
Y02022
X01964Y019966
X01931Y01997
X01822Y01988
X01798Y01961
X01822Y01937
X01845Y01914
X01822Y0189
X01797Y0187
Y01914
X01847Y0196
X01797Y02014
X0167079Y02216
X01478Y02135
X01377Y02071
X0129Y0207
X0131Y019823
X01373Y01975
X01408Y01936
X01469Y01932
X01444Y01864
X01474Y01833
X01372Y0183268
X0133267Y01744
X01337Y01706
X01286Y0167978
X01301Y016422
X01347Y01569
X01393Y01559
X01409Y01492
X01495Y01493
X01473Y01523
X01477Y01652
X01503
X01516Y01682
X0149
X01464
X01477Y01712
X01634Y01672
X0164766Y015947
X0175449Y01598
X01809Y01535
X01819Y01487
Y01438
X0185Y01457
Y01409
X01792Y01408
X01819Y01377
X0167Y01389
X01675Y01477
X0154Y01405
X0139379Y01324
X0142Y01265
X013208Y01375
X01229Y01289
X0117Y01409
X01114Y0141063
X0118295Y01526
Y0158591
X01137Y01704
X01033Y0170516
X01214Y01859
X01141Y01964
X0157947Y0181325
X01999Y01843
X01991Y01559
Y01512
X01967Y01485
X01934
X02008Y01332
X0153915Y0116685
X018659Y02299
T02
X0028Y0084
Y0114
X0068
Y0084
X02945Y0104
X03345
X03344Y00603
X02944
Y00203
X03344
X03345Y0134
X0334039Y0171
Y0201
X0334539Y024
X0294539
X0294039Y0201
Y0171
X02945Y0134
X0068Y0155
Y0195
X0028
Y0155
X0294539Y028
X0334539
T03
X0053039Y0099
X0309461Y0119
X0309Y0186
T04
X0309361Y00403
X03095Y026
X0053039Y0175
M30
