G04*
G04 #@! TF.GenerationSoftware,Altium Limited,Altium Designer,19.0.15 (446)*
G04*
G04 Layer_Color=65535*
%FSLAX25Y25*%
%MOIN*%
G70*
G01*
G75*
%ADD10C,0.00787*%
%ADD11C,0.00394*%
%ADD12C,0.01000*%
D10*
X148287Y140559D02*
X154193D01*
X155571Y120854D02*
Y140146D01*
Y120854D02*
X168169D01*
Y140146D01*
X155571D02*
X168169D01*
X148517Y206659D02*
X154423D01*
X155801Y186954D02*
Y206246D01*
Y186954D02*
X168399D01*
Y206246D01*
X155801D02*
X168399D01*
X186894Y98189D02*
X236106D01*
X186894Y147402D02*
X236106D01*
X185894Y226706D02*
X235106D01*
X185894Y177494D02*
X235106D01*
X266465Y120630D02*
Y149370D01*
X249535Y118169D02*
Y149370D01*
X248535Y168630D02*
Y197370D01*
X265465Y168630D02*
Y199831D01*
X153793Y165669D02*
Y174331D01*
X140407Y165669D02*
Y174331D01*
X153793D01*
X140407Y165669D02*
X153793D01*
X146069Y145107D02*
X154731D01*
X146069Y158493D02*
X154731D01*
Y145107D02*
Y158493D01*
X146069Y145107D02*
Y158493D01*
X154193Y88269D02*
Y96931D01*
X140807Y88269D02*
Y96931D01*
X154193D01*
X140807Y88269D02*
X154193D01*
X157193Y244469D02*
Y253131D01*
X143807Y244469D02*
Y253131D01*
X157193D01*
X143807Y244469D02*
X157193D01*
X165405Y88269D02*
X167374D01*
X165405Y96931D02*
X167374D01*
Y88269D02*
Y96931D01*
X165610Y153224D02*
X168760D01*
X165610Y143776D02*
X168760D01*
X171984Y244469D02*
Y253131D01*
X170016D02*
X171984D01*
X170016Y244469D02*
X171984D01*
X163610Y220824D02*
X166760D01*
X163610Y211376D02*
X166760D01*
D11*
X77193Y157500D02*
Y217500D01*
X2390D02*
X77193D01*
X2390Y157500D02*
Y217500D01*
Y157500D02*
X77193D01*
X2390Y87378D02*
Y134622D01*
Y87378D02*
X77193D01*
Y134622D01*
X2390D02*
X77193D01*
X287807Y224000D02*
Y284000D01*
Y224000D02*
X362610D01*
Y284000D01*
X287807D02*
X362610D01*
Y158378D02*
Y205622D01*
X287807D02*
X362610D01*
X287807Y158378D02*
Y205622D01*
Y158378D02*
X362610D01*
Y93878D02*
Y141122D01*
X287807D02*
X362610D01*
X287807Y93878D02*
Y141122D01*
Y93878D02*
X362610D01*
X287807Y19500D02*
Y79500D01*
Y19500D02*
X362610D01*
Y79500D01*
X287807D02*
X362610D01*
D12*
X173466Y183332D02*
X172799Y183999D01*
X171467D01*
X170800Y183332D01*
Y180666D01*
X171467Y180000D01*
X172799D01*
X173466Y180666D01*
X174799Y183332D02*
X175465Y183999D01*
X176798D01*
X177464Y183332D01*
Y182666D01*
X176798Y181999D01*
X176132D01*
X176798D01*
X177464Y181333D01*
Y180666D01*
X176798Y180000D01*
X175465D01*
X174799Y180666D01*
X144700Y255800D02*
Y259799D01*
X146699D01*
X147366Y259132D01*
Y257799D01*
X146699Y257133D01*
X144700D01*
X146033D02*
X147366Y255800D01*
X148699D02*
X150032D01*
X149365D01*
Y259799D01*
X148699Y259132D01*
X152031D02*
X152697Y259799D01*
X154030D01*
X154697Y259132D01*
Y256466D01*
X154030Y255800D01*
X152697D01*
X152031Y256466D01*
Y259132D01*
X143000Y81300D02*
Y85299D01*
X144999D01*
X145666Y84632D01*
Y83299D01*
X144999Y82633D01*
X143000D01*
X144333D02*
X145666Y81300D01*
X146999Y81966D02*
X147665Y81300D01*
X148998D01*
X149664Y81966D01*
Y84632D01*
X148998Y85299D01*
X147665D01*
X146999Y84632D01*
Y83966D01*
X147665Y83299D01*
X149664D01*
X137400Y149500D02*
Y153499D01*
X139399D01*
X140066Y152832D01*
Y151499D01*
X139399Y150833D01*
X137400D01*
X138733D02*
X140066Y149500D01*
X141399Y153499D02*
X144064D01*
Y152832D01*
X141399Y150166D01*
Y149500D01*
X133000Y167000D02*
Y170999D01*
X134999D01*
X135666Y170332D01*
Y168999D01*
X134999Y168333D01*
X133000D01*
X134333D02*
X135666Y167000D01*
X136999D02*
X138332D01*
X137665D01*
Y170999D01*
X136999Y170332D01*
X142466Y195766D02*
Y198432D01*
X141799Y199099D01*
X140466D01*
X139800Y198432D01*
Y195766D01*
X140466Y195100D01*
X141799D01*
X141133Y196433D02*
X142466Y195100D01*
X141799D02*
X142466Y195766D01*
X146465Y195100D02*
X143799D01*
X146465Y197766D01*
Y198432D01*
X145798Y199099D01*
X144465D01*
X143799Y198432D01*
X142266Y129766D02*
Y132432D01*
X141599Y133099D01*
X140267D01*
X139600Y132432D01*
Y129766D01*
X140267Y129100D01*
X141599D01*
X140933Y130433D02*
X142266Y129100D01*
X141599D02*
X142266Y129766D01*
X143599Y129100D02*
X144932D01*
X144265D01*
Y133099D01*
X143599Y132432D01*
X164100Y259699D02*
Y255700D01*
X166766D01*
X170765Y259699D02*
X168099D01*
Y255700D01*
X170765D01*
X168099Y257699D02*
X169432D01*
X172097Y259699D02*
Y255700D01*
X174097D01*
X174763Y256366D01*
Y259032D01*
X174097Y259699D01*
X172097D01*
X178762Y255700D02*
X176096D01*
X178762Y258366D01*
Y259032D01*
X178095Y259699D01*
X176763D01*
X176096Y259032D01*
X159800Y85099D02*
Y81100D01*
X162466D01*
X166464Y85099D02*
X163799D01*
Y81100D01*
X166464D01*
X163799Y83099D02*
X165132D01*
X167797Y85099D02*
Y81100D01*
X169797D01*
X170463Y81766D01*
Y84432D01*
X169797Y85099D01*
X167797D01*
X171796Y81100D02*
X173129D01*
X172463D01*
Y85099D01*
X171796Y84432D01*
X196700Y234199D02*
Y230200D01*
X199366D01*
X203364D02*
X200699D01*
X203364Y232866D01*
Y233532D01*
X202698Y234199D01*
X201365D01*
X200699Y233532D01*
X198200Y153999D02*
Y150000D01*
X200866D01*
X202199D02*
X203532D01*
X202865D01*
Y153999D01*
X202199Y153332D01*
X353666Y216499D02*
X352333D01*
X352999D01*
Y213166D01*
X352333Y212500D01*
X351666D01*
X351000Y213166D01*
X357664Y216499D02*
X356332Y215832D01*
X354999Y214499D01*
Y213166D01*
X355665Y212500D01*
X356998D01*
X357664Y213166D01*
Y213833D01*
X356998Y214499D01*
X354999D01*
X352166Y293999D02*
X350833D01*
X351499D01*
Y290666D01*
X350833Y290000D01*
X350166D01*
X349500Y290666D01*
X356165Y293999D02*
X353499D01*
Y291999D01*
X354832Y292666D01*
X355498D01*
X356165Y291999D01*
Y290666D01*
X355498Y290000D01*
X354165D01*
X353499Y290666D01*
X353666Y150999D02*
X352333D01*
X352999D01*
Y147667D01*
X352333Y147000D01*
X351666D01*
X351000Y147667D01*
X356998Y147000D02*
Y150999D01*
X354999Y148999D01*
X357664D01*
X350666Y9999D02*
X349333D01*
X349999D01*
Y6667D01*
X349333Y6000D01*
X348666D01*
X348000Y6667D01*
X351999Y9332D02*
X352665Y9999D01*
X353998D01*
X354664Y9332D01*
Y8666D01*
X353998Y7999D01*
X353332D01*
X353998D01*
X354664Y7333D01*
Y6667D01*
X353998Y6000D01*
X352665D01*
X351999Y6667D01*
X6666Y145499D02*
X5333D01*
X5999D01*
Y142166D01*
X5333Y141500D01*
X4666D01*
X4000Y142166D01*
X10665Y141500D02*
X7999D01*
X10665Y144166D01*
Y144832D01*
X9998Y145499D01*
X8665D01*
X7999Y144832D01*
X6166Y228999D02*
X4833D01*
X5499D01*
Y225666D01*
X4833Y225000D01*
X4166D01*
X3500Y225666D01*
X7499Y225000D02*
X8832D01*
X8165D01*
Y228999D01*
X7499Y228332D01*
X251966Y207032D02*
X251299Y207699D01*
X249966D01*
X249300Y207032D01*
Y204366D01*
X249966Y203700D01*
X251299D01*
X251966Y204366D01*
X253299Y203700D02*
X254632D01*
X253965D01*
Y207699D01*
X253299Y207032D01*
X256631D02*
X257297Y207699D01*
X258630D01*
X259297Y207032D01*
Y204366D01*
X258630Y203700D01*
X257297D01*
X256631Y204366D01*
Y207032D01*
X254466Y159432D02*
X253799Y160099D01*
X252466D01*
X251800Y159432D01*
Y156766D01*
X252466Y156100D01*
X253799D01*
X254466Y156766D01*
X255799Y160099D02*
X258465D01*
Y159432D01*
X255799Y156766D01*
Y156100D01*
X181666Y153632D02*
X180999Y154299D01*
X179666D01*
X179000Y153632D01*
Y150967D01*
X179666Y150300D01*
X180999D01*
X181666Y150967D01*
X185664Y154299D02*
X184332Y153632D01*
X182999Y152299D01*
Y150967D01*
X183665Y150300D01*
X184998D01*
X185664Y150967D01*
Y151633D01*
X184998Y152299D01*
X182999D01*
X168071Y170632D02*
X167405Y171299D01*
X166072D01*
X165405Y170632D01*
Y167966D01*
X166072Y167300D01*
X167405D01*
X168071Y167966D01*
X172070Y171299D02*
X169404D01*
Y169299D01*
X170737Y169966D01*
X171404D01*
X172070Y169299D01*
Y167966D01*
X171404Y167300D01*
X170071D01*
X169404Y167966D01*
X163766Y226932D02*
X163099Y227599D01*
X161767D01*
X161100Y226932D01*
Y224266D01*
X161767Y223600D01*
X163099D01*
X163766Y224266D01*
X165099Y223600D02*
X166432D01*
X165765D01*
Y227599D01*
X165099Y226932D01*
M02*
