G04*
G04 #@! TF.GenerationSoftware,Altium Limited,Altium Designer,19.0.15 (446)*
G04*
G04 Layer_Color=8421504*
%FSLAX25Y25*%
%MOIN*%
G70*
G01*
G75*
%ADD13R,0.05906X0.02362*%
%ADD14R,0.11221X0.19488*%
%ADD15R,0.09646X0.09252*%
%ADD16R,0.02756X0.05118*%
%ADD17R,0.05118X0.02756*%
%ADD18R,0.04331X0.05512*%
%ADD19R,0.06299X0.09449*%
%ADD20R,0.04331X0.10236*%
%ADD21R,0.05512X0.04331*%
D13*
X172500Y138000D02*
D03*
Y133000D02*
D03*
Y128000D02*
D03*
Y123000D02*
D03*
X151240D02*
D03*
Y128000D02*
D03*
Y133000D02*
D03*
Y138000D02*
D03*
X172730Y204100D02*
D03*
Y199100D02*
D03*
Y194100D02*
D03*
Y189100D02*
D03*
X151470D02*
D03*
Y194100D02*
D03*
Y199100D02*
D03*
Y204100D02*
D03*
D14*
X232760Y122795D02*
D03*
X190240D02*
D03*
X189240Y202100D02*
D03*
X231760D02*
D03*
D15*
X258000Y147205D02*
D03*
Y122795D02*
D03*
X257000Y170795D02*
D03*
Y195205D02*
D03*
D16*
X150840Y170000D02*
D03*
X143360D02*
D03*
X151240Y92600D02*
D03*
X143760D02*
D03*
X154240Y248800D02*
D03*
X146760D02*
D03*
D17*
X150400Y148060D02*
D03*
Y155540D02*
D03*
D18*
X166453Y181500D02*
D03*
X160547D02*
D03*
D19*
X172000Y92600D02*
D03*
X160780D02*
D03*
X165390Y248800D02*
D03*
X176610D02*
D03*
D20*
X161870Y148500D02*
D03*
X172500D02*
D03*
X159870Y216100D02*
D03*
X170500D02*
D03*
D21*
X160300Y165795D02*
D03*
Y171700D02*
D03*
M02*
