G04*
G04 #@! TF.GenerationSoftware,Altium Limited,Altium Designer,19.0.15 (446)*
G04*
G04 Layer_Physical_Order=3*
G04 Layer_Color=128*
%FSLAX25Y25*%
%MOIN*%
G70*
G01*
G75*
%ADD40C,0.04000*%
%ADD41C,0.12661*%
%ADD42C,0.09236*%
%ADD43C,0.11874*%
G04:AMPARAMS|DCode=44|XSize=112.362mil|YSize=112.362mil|CornerRadius=0mil|HoleSize=0mil|Usage=FLASHONLY|Rotation=0.000|XOffset=0mil|YOffset=0mil|HoleType=Round|Shape=Relief|Width=10mil|Gap=10mil|Entries=4|*
%AMTHD44*
7,0,0,0.11236,0.09236,0.01000,45*
%
%ADD44THD44*%
%ADD45C,0.05181*%
G04:AMPARAMS|DCode=46|XSize=71.811mil|YSize=71.811mil|CornerRadius=0mil|HoleSize=0mil|Usage=FLASHONLY|Rotation=0.000|XOffset=0mil|YOffset=0mil|HoleType=Round|Shape=Relief|Width=10mil|Gap=10mil|Entries=4|*
%AMTHD46*
7,0,0,0.07181,0.05181,0.01000,45*
%
%ADD46THD46*%
D40*
X0Y0D02*
X365000D01*
Y305000D01*
X0D02*
X365000D01*
X0Y0D02*
Y305000D01*
D41*
X55539Y187500D02*
D03*
X309461Y254000D02*
D03*
Y49500D02*
D03*
D42*
X30500Y96000D02*
D03*
Y126000D02*
D03*
X70500D02*
D03*
Y96000D02*
D03*
X334500Y274000D02*
D03*
Y234000D02*
D03*
X294500D02*
D03*
Y274000D02*
D03*
X334500Y197000D02*
D03*
Y167000D02*
D03*
X294500D02*
D03*
Y197000D02*
D03*
X334500Y132500D02*
D03*
Y102500D02*
D03*
X294500D02*
D03*
Y132500D02*
D03*
X334500Y69500D02*
D03*
Y29500D02*
D03*
X294500D02*
D03*
Y69500D02*
D03*
D43*
X55539Y111000D02*
D03*
X309461Y182000D02*
D03*
Y117500D02*
D03*
D44*
X30500Y167500D02*
D03*
Y207500D02*
D03*
X70500D02*
D03*
Y167500D02*
D03*
D45*
X162000Y181000D02*
D03*
X175100Y183700D02*
D03*
X152057Y174700D02*
D03*
X145500Y174647D02*
D03*
X142700Y193100D02*
D03*
X148500Y156400D02*
D03*
X133500Y181700D02*
D03*
X151500Y179600D02*
D03*
X156100Y161800D02*
D03*
X141000Y185500D02*
D03*
X134702Y169502D02*
D03*
X141400Y160300D02*
D03*
X133230Y172228D02*
D03*
X130500Y174713D02*
D03*
X146000Y179600D02*
D03*
X139800Y163600D02*
D03*
X188600Y176800D02*
D03*
X126800Y174647D02*
D03*
X156280Y149900D02*
D03*
X152600Y142900D02*
D03*
X158200Y133700D02*
D03*
X160700Y135900D02*
D03*
X161591Y130500D02*
D03*
X165900Y164400D02*
D03*
X182500Y183800D02*
D03*
X165500Y193300D02*
D03*
X183800Y164700D02*
D03*
X180800Y174100D02*
D03*
X125464Y197353D02*
D03*
X181460Y158400D02*
D03*
X147416Y234300D02*
D03*
X150600Y99500D02*
D03*
X163700Y133000D02*
D03*
X179300Y92100D02*
D03*
X158100Y129800D02*
D03*
X162500Y211600D02*
D03*
X162900Y216500D02*
D03*
X162600Y203500D02*
D03*
X159500D02*
D03*
X184400Y248700D02*
D03*
X256700Y113500D02*
D03*
X256000Y202900D02*
D03*
D46*
X162500Y172900D02*
D03*
X173300Y208800D02*
D03*
X170047Y209100D02*
D03*
X176500Y148500D02*
D03*
X172100Y140600D02*
D03*
X175700Y140900D02*
D03*
X176300Y144700D02*
D03*
X174100Y212500D02*
D03*
X174200Y216500D02*
D03*
X136700Y93100D02*
D03*
X139800Y248900D02*
D03*
M02*
