G04*
G04 #@! TF.GenerationSoftware,Altium Limited,Altium Designer,19.0.15 (446)*
G04*
G04 Layer_Color=32896*
%FSLAX25Y25*%
%MOIN*%
G70*
G01*
G75*
%ADD10C,0.00787*%
%ADD12C,0.01000*%
%ADD56C,0.00500*%
D10*
X160311Y185449D02*
G03*
X160311Y185449I-394J0D01*
G01*
X158549Y160293D02*
X167211D01*
X158549Y146907D02*
X167211D01*
Y160293D01*
X158549Y146907D02*
Y160293D01*
X167207Y151569D02*
Y160231D01*
X180593Y151569D02*
Y160231D01*
X167207D02*
X180593D01*
X167207Y151569D02*
X180593D01*
X151593Y143269D02*
Y151931D01*
X138207Y143269D02*
Y151931D01*
Y143269D02*
X151593D01*
X138207Y151931D02*
X151593D01*
X138207Y134569D02*
Y143231D01*
X151593Y134569D02*
Y143231D01*
X138207D02*
X151593D01*
X138207Y134569D02*
X151593D01*
X124607Y138669D02*
Y147331D01*
X137993Y138669D02*
Y147331D01*
X124607D02*
X137993D01*
X124607Y138669D02*
X137993D01*
X151547Y188469D02*
Y197131D01*
X164933Y188469D02*
Y197131D01*
X151547D02*
X164933D01*
X151547Y188469D02*
X164933D01*
X124607Y147469D02*
Y156131D01*
X137993Y147469D02*
Y156131D01*
X124607D02*
X137993D01*
X124607Y147469D02*
X137993D01*
X184269Y183193D02*
X192931D01*
X184269Y169807D02*
X192931D01*
Y183193D01*
X184269Y169807D02*
Y183193D01*
X192969D02*
X201631D01*
X192969Y169807D02*
X201631D01*
Y183193D01*
X192969Y169807D02*
Y183193D01*
X179969Y183507D02*
X188631D01*
X179969Y196893D02*
X188631D01*
X179969Y183507D02*
Y196893D01*
X188631Y183507D02*
Y196893D01*
X128271Y196869D02*
Y205531D01*
X141657Y196869D02*
Y205531D01*
X128271D02*
X141657D01*
X128271Y196869D02*
X141657D01*
X188569Y196893D02*
X197231D01*
X188569Y183507D02*
X197231D01*
Y196893D01*
X188569Y183507D02*
Y196893D01*
X172825Y167653D02*
X175975D01*
X172825Y161747D02*
X175975D01*
D12*
X155400Y162999D02*
Y159667D01*
X154734Y159000D01*
X153401D01*
X152734Y159667D01*
Y162999D01*
X151401Y159000D02*
X150068D01*
X150735D01*
Y162999D01*
X151401Y162332D01*
X209500Y190100D02*
Y194099D01*
X207501D01*
X206834Y193432D01*
Y192099D01*
X207501Y191433D01*
X209500D01*
X208167D02*
X206834Y190100D01*
X205501D02*
X204168D01*
X204835D01*
Y194099D01*
X205501Y193432D01*
X200170Y190100D02*
Y194099D01*
X202169Y192099D01*
X199503D01*
X125000Y199500D02*
Y203499D01*
X123001D01*
X122334Y202832D01*
Y201499D01*
X123001Y200833D01*
X125000D01*
X123667D02*
X122334Y199500D01*
X121001D02*
X119668D01*
X120335D01*
Y203499D01*
X121001Y202832D01*
X115003Y203499D02*
X116336Y202832D01*
X117669Y201499D01*
Y200167D01*
X117003Y199500D01*
X115670D01*
X115003Y200167D01*
Y200833D01*
X115670Y201499D01*
X117669D01*
X187419Y199200D02*
Y203199D01*
X185420D01*
X184753Y202532D01*
Y201199D01*
X185420Y200533D01*
X187419D01*
X186086D02*
X184753Y199200D01*
X183420D02*
X182087D01*
X182754D01*
Y203199D01*
X183420Y202532D01*
X177422Y203199D02*
X180088D01*
Y201199D01*
X178755Y201866D01*
X178089D01*
X177422Y201199D01*
Y199866D01*
X178089Y199200D01*
X179421D01*
X180088Y199866D01*
X213700Y174300D02*
Y178299D01*
X211701D01*
X211034Y177632D01*
Y176299D01*
X211701Y175633D01*
X213700D01*
X212367D02*
X211034Y174300D01*
X209701D02*
X208368D01*
X209035D01*
Y178299D01*
X209701Y177632D01*
X206369D02*
X205703Y178299D01*
X204370D01*
X203703Y177632D01*
Y176966D01*
X204370Y176299D01*
X205036D01*
X204370D01*
X203703Y175633D01*
Y174967D01*
X204370Y174300D01*
X205703D01*
X206369Y174967D01*
X202600Y163900D02*
Y167899D01*
X200601D01*
X199934Y167232D01*
Y165899D01*
X200601Y165233D01*
X202600D01*
X201267D02*
X199934Y163900D01*
X198601D02*
X197268D01*
X197935D01*
Y167899D01*
X198601Y167232D01*
X192603Y163900D02*
X195269D01*
X192603Y166566D01*
Y167232D01*
X193270Y167899D01*
X194603D01*
X195269Y167232D01*
X122600Y149500D02*
Y153499D01*
X120601D01*
X119934Y152832D01*
Y151499D01*
X120601Y150833D01*
X122600D01*
X121267D02*
X119934Y149500D01*
X118601D02*
X117268D01*
X117935D01*
Y153499D01*
X118601Y152832D01*
X115269Y149500D02*
X113936D01*
X114603D01*
Y153499D01*
X115269Y152832D01*
X158800Y199200D02*
Y203199D01*
X156801D01*
X156134Y202532D01*
Y201199D01*
X156801Y200533D01*
X158800D01*
X157467D02*
X156134Y199200D01*
X154801Y202532D02*
X154135Y203199D01*
X152802D01*
X152136Y202532D01*
Y201866D01*
X152802Y201199D01*
X152136Y200533D01*
Y199866D01*
X152802Y199200D01*
X154135D01*
X154801Y199866D01*
Y200533D01*
X154135Y201199D01*
X154801Y201866D01*
Y202532D01*
X154135Y201199D02*
X152802D01*
X122500Y140600D02*
Y144599D01*
X120501D01*
X119834Y143932D01*
Y142599D01*
X120501Y141933D01*
X122500D01*
X121167D02*
X119834Y140600D01*
X115835Y144599D02*
X117168Y143932D01*
X118501Y142599D01*
Y141267D01*
X117835Y140600D01*
X116502D01*
X115835Y141267D01*
Y141933D01*
X116502Y142599D01*
X118501D01*
X148900Y128300D02*
Y132299D01*
X146901D01*
X146234Y131632D01*
Y130299D01*
X146901Y129633D01*
X148900D01*
X147567D02*
X146234Y128300D01*
X142236Y132299D02*
X144901D01*
Y130299D01*
X143568Y130966D01*
X142902D01*
X142236Y130299D01*
Y128966D01*
X142902Y128300D01*
X144235D01*
X144901Y128966D01*
X146800Y154100D02*
Y158099D01*
X144801D01*
X144134Y157432D01*
Y156099D01*
X144801Y155433D01*
X146800D01*
X145467D02*
X144134Y154100D01*
X140802D02*
Y158099D01*
X142801Y156099D01*
X140136D01*
X189700Y150300D02*
Y154299D01*
X187701D01*
X187034Y153632D01*
Y152299D01*
X187701Y151633D01*
X189700D01*
X188367D02*
X187034Y150300D01*
X185701Y153632D02*
X185035Y154299D01*
X183702D01*
X183036Y153632D01*
Y152966D01*
X183702Y152299D01*
X184368D01*
X183702D01*
X183036Y151633D01*
Y150967D01*
X183702Y150300D01*
X185035D01*
X185701Y150967D01*
X166280Y140900D02*
Y144899D01*
X164281D01*
X163614Y144232D01*
Y142899D01*
X164281Y142233D01*
X166280D01*
X164947D02*
X163614Y140900D01*
X159615D02*
X162281D01*
X159615Y143566D01*
Y144232D01*
X160282Y144899D01*
X161615D01*
X162281Y144232D01*
X175134Y193132D02*
X175801Y193799D01*
X177134D01*
X177800Y193132D01*
Y190466D01*
X177134Y189800D01*
X175801D01*
X175134Y190466D01*
X173801Y189800D02*
X172468D01*
X173135D01*
Y193799D01*
X173801Y193132D01*
X167803Y189800D02*
X170469D01*
X167803Y192466D01*
Y193132D01*
X168470Y193799D01*
X169803D01*
X170469Y193132D01*
X171801Y180724D02*
X172326Y181249D01*
X173375D01*
X173900Y180724D01*
Y178625D01*
X173375Y178100D01*
X172326D01*
X171801Y178625D01*
X170751Y178100D02*
X169702D01*
X170227D01*
Y181249D01*
X170751Y180724D01*
X168128Y178100D02*
X167078D01*
X167603D01*
Y181249D01*
X168128Y180724D01*
X123404Y191527D02*
X124070Y192193D01*
X125403D01*
X126069Y191527D01*
Y188861D01*
X125403Y188195D01*
X124070D01*
X123404Y188861D01*
X122071D02*
X121404Y188195D01*
X120071D01*
X119405Y188861D01*
Y191527D01*
X120071Y192193D01*
X121404D01*
X122071Y191527D01*
Y190860D01*
X121404Y190194D01*
X119405D01*
X123834Y166232D02*
X124501Y166899D01*
X125833D01*
X126500Y166232D01*
Y163567D01*
X125833Y162900D01*
X124501D01*
X123834Y163567D01*
X122501Y166232D02*
X121835Y166899D01*
X120502D01*
X119835Y166232D01*
Y165566D01*
X120502Y164899D01*
X119835Y164233D01*
Y163567D01*
X120502Y162900D01*
X121835D01*
X122501Y163567D01*
Y164233D01*
X121835Y164899D01*
X122501Y165566D01*
Y166232D01*
X121835Y164899D02*
X120502D01*
X114034Y178532D02*
X114701Y179199D01*
X116033D01*
X116700Y178532D01*
Y175866D01*
X116033Y175200D01*
X114701D01*
X114034Y175866D01*
X110702Y175200D02*
Y179199D01*
X112701Y177199D01*
X110036D01*
X188034Y162732D02*
X188701Y163399D01*
X190033D01*
X190700Y162732D01*
Y160066D01*
X190033Y159400D01*
X188701D01*
X188034Y160066D01*
X184036Y159400D02*
X186701D01*
X184036Y162066D01*
Y162732D01*
X184702Y163399D01*
X186035D01*
X186701Y162732D01*
D56*
X158343Y184465D02*
Y185843D01*
X156965D02*
X158343D01*
X138657D02*
X140035D01*
X138657Y184465D02*
Y185843D01*
Y166157D02*
X140035D01*
X138657D02*
Y167535D01*
X156965Y166157D02*
X158343D01*
Y167535D01*
M02*
