G04*
G04 #@! TF.GenerationSoftware,Altium Limited,Altium Designer,19.0.15 (446)*
G04*
G04 Layer_Physical_Order=4*
G04 Layer_Color=16711680*
%FSLAX25Y25*%
%MOIN*%
G70*
G01*
G75*
%ADD12C,0.01000*%
%ADD16R,0.02756X0.05118*%
%ADD17R,0.05118X0.02756*%
%ADD18R,0.04331X0.05512*%
%ADD21R,0.05512X0.04331*%
%ADD35C,0.00800*%
%ADD36C,0.04331*%
%ADD37C,0.07854*%
%ADD38C,0.03937*%
%ADD39C,0.01968*%
%ADD47R,0.03386X0.01024*%
%ADD48R,0.01024X0.03386*%
%ADD49R,0.12992X0.12992*%
%ADD50R,0.04331X0.06693*%
%ADD51C,0.02500*%
G36*
X140098Y169106D02*
X140098D01*
Y168600D01*
X139550D01*
X134150Y163200D01*
X128600D01*
Y167403D01*
X128700Y167500D01*
X134598D01*
X134702Y167479D01*
X134807Y167500D01*
X136100D01*
X137200Y168600D01*
Y169537D01*
X138902D01*
X139049Y169567D01*
X140003D01*
X140098Y169106D01*
D02*
G37*
G36*
X141606Y167598D02*
X142067Y167503D01*
Y166502D01*
X142049Y166413D01*
Y164049D01*
X135300Y157300D01*
X128600D01*
Y161600D01*
X137400Y161600D01*
X141100Y165300D01*
X141100Y167598D01*
X141606D01*
Y167598D01*
D02*
G37*
G36*
X142049Y187851D02*
Y185587D01*
X142067Y185498D01*
Y184497D01*
X141606Y184402D01*
Y184402D01*
X141100D01*
X141100Y187200D01*
X136800Y191500D01*
X128700D01*
Y195800D01*
X134100D01*
X142049Y187851D01*
D02*
G37*
G36*
X134150Y187150D02*
X137900Y183400D01*
X139745Y183400D01*
X139853Y183292D01*
X140098Y182894D01*
X139947Y182433D01*
X139002D01*
X138913Y182451D01*
X137149D01*
X134100Y185500D01*
X128700D01*
Y189900D01*
X134150D01*
X134150Y187150D01*
D02*
G37*
D12*
X161933Y180933D02*
X162000Y181000D01*
X158098Y180933D02*
X161933D01*
X158087Y178953D02*
Y180921D01*
X162353Y173047D02*
X162500Y172900D01*
X158087Y173047D02*
X162353D01*
X131065Y175016D02*
X138913D01*
X134311Y173047D02*
X138913D01*
X141400Y160300D02*
X143579Y162479D01*
X149484Y157384D02*
Y166413D01*
X133500Y181700D02*
X134279Y180921D01*
X143579Y162479D02*
Y166413D01*
X148500Y156400D02*
X149484Y157384D01*
X153421Y166413D02*
X153433Y166402D01*
X156100Y161800D02*
Y162062D01*
X142700Y190000D02*
X143579Y189121D01*
X134964Y169502D02*
X136529Y171067D01*
X155390Y162772D02*
Y166413D01*
X130762Y174713D02*
X131065Y175016D01*
X133230Y172228D02*
X133492D01*
X158087Y180921D02*
X158098Y180933D01*
X149428Y180855D02*
X149472Y180900D01*
X133492Y172228D02*
X134311Y173047D01*
X143579Y185587D02*
Y189121D01*
X134702Y169502D02*
X134964D01*
X155390Y162772D02*
X156100Y162062D01*
X149472Y180900D02*
Y185575D01*
X142700Y190000D02*
Y193100D01*
X136529Y171067D02*
X138902D01*
X149472Y185575D02*
X149484Y185587D01*
X134279Y180921D02*
X138913D01*
X130500Y174713D02*
X130762D01*
X138902Y171067D02*
X138913Y171079D01*
X139040Y200519D02*
Y201200D01*
X191719Y186460D02*
X192900Y185279D01*
X127560Y151800D02*
Y151900D01*
Y143000D02*
Y151800D01*
X188600Y176800D02*
Y180240D01*
X124065Y174713D02*
X124131Y174647D01*
X165900Y164400D02*
X169085D01*
X169385D01*
X126700Y170913D02*
X130500Y174713D01*
X126700Y152760D02*
Y170913D01*
X156280Y149900D02*
X156300Y149880D01*
X162860D01*
X162880Y149860D01*
X156616Y188841D02*
X166787D01*
X155402Y187627D02*
X156616Y188841D01*
X155402Y186779D02*
Y187627D01*
X162200Y185200D02*
X170047D01*
X159890Y182890D02*
X162200Y185200D01*
X158087Y182890D02*
X159890D01*
X152600Y142860D02*
Y142900D01*
X148640Y138900D02*
X152600Y142860D01*
X155859Y145541D02*
X187900Y113500D01*
X149518Y145541D02*
X155859D01*
X148640Y146419D02*
X149518Y145541D01*
X148640Y146419D02*
Y147600D01*
Y148781D02*
X153421Y153562D01*
X148640Y147600D02*
Y148781D01*
X153421Y153562D02*
Y166413D01*
X161479Y157780D02*
X163200D01*
X170160Y156200D02*
Y156662D01*
X169282Y157540D02*
X170160Y156662D01*
X162900Y157540D02*
X169282D01*
X160841Y158418D02*
Y165525D01*
Y158418D02*
X161479Y157780D01*
X136018Y140941D02*
X141437D01*
X144829Y152429D02*
X148682D01*
X141160Y148760D02*
X144829Y152429D01*
X141160Y147600D02*
Y148760D01*
X148682Y152429D02*
X151453Y155200D01*
X166787Y188841D02*
X171886Y193940D01*
X197300Y180240D02*
Y189300D01*
X194959Y191641D02*
X197300Y189300D01*
X194959Y191641D02*
Y193062D01*
X194081Y193940D02*
X194959Y193062D01*
X192900Y193940D02*
X194081D01*
X173100Y169600D02*
X192959D01*
X196119Y172760D01*
X197300D01*
X126700Y152760D02*
X127560Y151900D01*
X135918Y153959D02*
X138572D01*
X135040Y153081D02*
X135918Y153959D01*
X135040Y151900D02*
Y153081D01*
X141160Y141218D02*
X141437Y140941D01*
X141160Y138900D02*
Y139000D01*
X140559Y137837D02*
Y138299D01*
X135140Y141819D02*
Y143000D01*
Y141819D02*
X136018Y140941D01*
X140559Y138299D02*
X141160Y138900D01*
X169085Y164400D02*
Y164700D01*
Y163519D02*
Y164400D01*
Y164700D02*
X169385Y164400D01*
X159268Y167098D02*
Y169110D01*
Y167098D02*
X160841Y165525D01*
X124131Y174647D02*
X126800D01*
X187900Y113500D02*
X256700D01*
X182500Y183800D02*
Y185482D01*
X161980Y192800D02*
X162480Y193300D01*
X165500D01*
X182500Y185482D02*
X183478Y186460D01*
X184300D01*
X179715Y164700D02*
X183800D01*
X176206Y174100D02*
X180800D01*
X122400Y173047D02*
X124065Y174713D01*
X125464Y197353D02*
X127252Y199141D01*
X130346D01*
X131224Y200019D01*
Y201200D01*
X178384Y156643D02*
X179703D01*
X177640Y155900D02*
X178384Y156643D01*
X179703D02*
X181460Y158400D01*
X141160Y141218D02*
Y147600D01*
X192900Y183359D02*
Y185279D01*
X189781Y180240D02*
X192900Y183359D01*
X171965Y170735D02*
X173100Y169600D01*
X171965Y170735D02*
Y172435D01*
X170300Y174100D02*
X171965Y172435D01*
X161656Y178256D02*
X181923D01*
X162000Y181000D02*
X186200D01*
X191719Y186460D02*
X192900D01*
X188600Y180240D02*
X189781D01*
X192900Y193940D02*
X192900Y193940D01*
X184300Y193940D02*
X192900D01*
X171886D02*
X184300D01*
X155390Y186768D02*
X155402Y186779D01*
X155390Y185587D02*
Y186768D01*
X160420Y171067D02*
X163940Y167546D01*
X167420D01*
X169085Y165881D01*
Y164700D02*
Y165881D01*
X181923Y178256D02*
X187419Y172760D01*
X188600D01*
X160396Y176996D02*
X161656Y178256D01*
X151453Y155200D02*
Y166413D01*
X145547Y160934D02*
Y166413D01*
X138572Y153959D02*
X145547Y160934D01*
Y185587D02*
Y194012D01*
X139040Y200519D02*
X145547Y194012D01*
X151453Y196510D02*
X154643Y199700D01*
X154500Y191619D02*
Y192800D01*
X153421Y190540D02*
X154500Y191619D01*
X153421Y185587D02*
Y190540D01*
X151453Y185587D02*
Y196510D01*
X252800Y199700D02*
X256000Y202900D01*
X154643Y199700D02*
X252800D01*
X161471Y175384D02*
X169016D01*
X161114Y175028D02*
X161471Y175384D01*
X158098Y176996D02*
X160396D01*
X158087Y176984D02*
X158098Y176996D01*
Y175028D02*
X161114D01*
X169016Y175384D02*
X170300Y174100D01*
X158087Y175016D02*
X158098Y175028D01*
Y171067D02*
X160420D01*
X158087Y171079D02*
X158098Y171067D01*
X184300Y186460D02*
X184350Y186510D01*
D16*
X170160Y155900D02*
D03*
X177640D02*
D03*
X148640Y147600D02*
D03*
X141160D02*
D03*
X141160Y138900D02*
D03*
X148640D02*
D03*
X127560Y143000D02*
D03*
X135040D02*
D03*
X154500Y192800D02*
D03*
X161980D02*
D03*
X127560Y151800D02*
D03*
X135040D02*
D03*
X131224Y201200D02*
D03*
X138704D02*
D03*
D17*
X162880Y157340D02*
D03*
Y149860D02*
D03*
X188600Y180240D02*
D03*
Y172760D02*
D03*
X197300Y180240D02*
D03*
Y172760D02*
D03*
X184300Y186460D02*
D03*
Y193940D02*
D03*
X192900Y193940D02*
D03*
Y186460D02*
D03*
D18*
X175953Y185200D02*
D03*
X170047D02*
D03*
X176206Y174100D02*
D03*
X170300D02*
D03*
D21*
X122400Y178953D02*
D03*
Y173047D02*
D03*
X131400Y165353D02*
D03*
Y159447D02*
D03*
X131400Y193600D02*
D03*
Y187695D02*
D03*
D35*
X138482Y148882D02*
Y150698D01*
X136800Y147200D02*
X138482Y148882D01*
X133000Y147200D02*
X136800D01*
X138482Y150698D02*
X147516Y159731D01*
Y166413D01*
X131600Y145800D02*
X133000Y147200D01*
X131600Y118500D02*
Y145800D01*
Y118500D02*
X150600Y99500D01*
X147516Y185587D02*
Y234400D01*
D36*
X55539Y187500D02*
D03*
X309461Y254000D02*
D03*
Y49500D02*
D03*
D37*
X30500Y167500D02*
D03*
Y207500D02*
D03*
X70500D02*
D03*
Y167500D02*
D03*
X30500Y96000D02*
D03*
Y126000D02*
D03*
X70500D02*
D03*
Y96000D02*
D03*
X334500Y274000D02*
D03*
Y234000D02*
D03*
X294500D02*
D03*
Y274000D02*
D03*
X334500Y197000D02*
D03*
Y167000D02*
D03*
X294500D02*
D03*
Y197000D02*
D03*
X334500Y132500D02*
D03*
Y102500D02*
D03*
X294500D02*
D03*
Y132500D02*
D03*
X334500Y69500D02*
D03*
Y29500D02*
D03*
X294500D02*
D03*
Y69500D02*
D03*
D38*
X55539Y111000D02*
D03*
X309461Y182000D02*
D03*
Y117500D02*
D03*
D39*
X162000Y181000D02*
D03*
X175100Y183700D02*
D03*
X152057Y174700D02*
D03*
X145500Y174647D02*
D03*
X162500Y172900D02*
D03*
X142700Y193100D02*
D03*
X148500Y156400D02*
D03*
X133500Y181700D02*
D03*
X151500Y179600D02*
D03*
X156100Y161800D02*
D03*
X141000Y185500D02*
D03*
X134702Y169502D02*
D03*
X141400Y160300D02*
D03*
X133230Y172228D02*
D03*
X130500Y174713D02*
D03*
X146000Y179600D02*
D03*
X139800Y163600D02*
D03*
X188600Y176800D02*
D03*
X173300Y208800D02*
D03*
X170047Y209100D02*
D03*
X126800Y174647D02*
D03*
X156280Y149900D02*
D03*
X152600Y142900D02*
D03*
X158200Y133700D02*
D03*
X160700Y135900D02*
D03*
X161591Y130500D02*
D03*
X165900Y164400D02*
D03*
X182500Y183800D02*
D03*
X165500Y193300D02*
D03*
X183800Y164700D02*
D03*
X180800Y174100D02*
D03*
X125464Y197353D02*
D03*
X181460Y158400D02*
D03*
X147416Y234300D02*
D03*
X150600Y99500D02*
D03*
X176500Y148500D02*
D03*
X172100Y140600D02*
D03*
X163700Y133000D02*
D03*
X175700Y140900D02*
D03*
X176300Y144700D02*
D03*
X174100Y212500D02*
D03*
X174200Y216500D02*
D03*
X179300Y92100D02*
D03*
X136700Y93100D02*
D03*
X158100Y129800D02*
D03*
X162500Y211600D02*
D03*
X162900Y216500D02*
D03*
X162600Y203500D02*
D03*
X159500D02*
D03*
X184400Y248700D02*
D03*
X139800Y248900D02*
D03*
X256700Y113500D02*
D03*
X256000Y202900D02*
D03*
D47*
X158087Y182890D02*
D03*
Y180921D02*
D03*
Y178953D02*
D03*
Y176984D02*
D03*
Y175016D02*
D03*
Y173047D02*
D03*
Y171079D02*
D03*
Y169110D02*
D03*
X138913D02*
D03*
Y171079D02*
D03*
Y173047D02*
D03*
Y175016D02*
D03*
Y176984D02*
D03*
Y178953D02*
D03*
Y180921D02*
D03*
Y182890D02*
D03*
D48*
X155390Y166413D02*
D03*
X153421D02*
D03*
X151453D02*
D03*
X149484D02*
D03*
X147516D02*
D03*
X145547D02*
D03*
X143579D02*
D03*
X141610D02*
D03*
Y185587D02*
D03*
X143579D02*
D03*
X145547D02*
D03*
X147516D02*
D03*
X149484D02*
D03*
X151453D02*
D03*
X153421D02*
D03*
X155390D02*
D03*
D49*
X148500Y176000D02*
D03*
D50*
X179715Y164700D02*
D03*
X169085D02*
D03*
D51*
X122200Y178066D02*
X138913D01*
X138948Y178100D02*
X142900D01*
M02*
