G04*
G04 #@! TF.GenerationSoftware,Altium Limited,Altium Designer,19.0.15 (446)*
G04*
G04 Layer_Color=8388736*
%FSLAX25Y25*%
%MOIN*%
G70*
G01*
G75*
%ADD22R,0.06706X0.03162*%
%ADD23R,0.12020X0.20288*%
%ADD24R,0.10446X0.10052*%
%ADD25R,0.03556X0.05918*%
%ADD26R,0.05918X0.03556*%
%ADD27R,0.05131X0.06312*%
%ADD28R,0.07099X0.10249*%
%ADD29R,0.05131X0.11036*%
%ADD30R,0.06312X0.05131*%
%ADD31C,0.05131*%
%ADD32C,0.08654*%
%ADD33C,0.04737*%
D22*
X172500Y138000D02*
D03*
Y133000D02*
D03*
Y128000D02*
D03*
Y123000D02*
D03*
X151240D02*
D03*
Y128000D02*
D03*
Y133000D02*
D03*
Y138000D02*
D03*
X172730Y204100D02*
D03*
Y199100D02*
D03*
Y194100D02*
D03*
Y189100D02*
D03*
X151470D02*
D03*
Y194100D02*
D03*
Y199100D02*
D03*
Y204100D02*
D03*
D23*
X232760Y122795D02*
D03*
X190240D02*
D03*
X189240Y202100D02*
D03*
X231760D02*
D03*
D24*
X258000Y147205D02*
D03*
Y122795D02*
D03*
X257000Y170795D02*
D03*
Y195205D02*
D03*
D25*
X150840Y170000D02*
D03*
X143360D02*
D03*
X151240Y92600D02*
D03*
X143760D02*
D03*
X154240Y248800D02*
D03*
X146760D02*
D03*
D26*
X150400Y148060D02*
D03*
Y155540D02*
D03*
D27*
X166453Y181500D02*
D03*
X160547D02*
D03*
D28*
X172000Y92600D02*
D03*
X160780D02*
D03*
X165390Y248800D02*
D03*
X176610D02*
D03*
D29*
X161870Y148500D02*
D03*
X172500D02*
D03*
X159870Y216100D02*
D03*
X170500D02*
D03*
D30*
X160300Y165795D02*
D03*
Y171700D02*
D03*
D31*
X55539Y187500D02*
D03*
X309461Y254000D02*
D03*
Y49500D02*
D03*
D32*
X30500Y167500D02*
D03*
Y207500D02*
D03*
X70500D02*
D03*
Y167500D02*
D03*
X30500Y96000D02*
D03*
Y126000D02*
D03*
X70500D02*
D03*
Y96000D02*
D03*
X334500Y274000D02*
D03*
Y234000D02*
D03*
X294500D02*
D03*
Y274000D02*
D03*
X334500Y197000D02*
D03*
Y167000D02*
D03*
X294500D02*
D03*
Y197000D02*
D03*
X334500Y132500D02*
D03*
Y102500D02*
D03*
X294500D02*
D03*
Y132500D02*
D03*
X334500Y69500D02*
D03*
Y29500D02*
D03*
X294500D02*
D03*
Y69500D02*
D03*
D33*
X55539Y111000D02*
D03*
X309461Y182000D02*
D03*
Y117500D02*
D03*
M02*
