G04*
G04 #@! TF.GenerationSoftware,Altium Limited,Altium Designer,19.0.15 (446)*
G04*
G04 Layer_Color=128*
%FSLAX25Y25*%
%MOIN*%
G70*
G01*
G75*
%ADD16R,0.02756X0.05118*%
%ADD17R,0.05118X0.02756*%
%ADD18R,0.04331X0.05512*%
%ADD21R,0.05512X0.04331*%
%ADD47R,0.03386X0.01024*%
%ADD48R,0.01024X0.03386*%
%ADD49R,0.12992X0.12992*%
%ADD50R,0.04331X0.06693*%
D16*
X170160Y155900D02*
D03*
X177640D02*
D03*
X148640Y147600D02*
D03*
X141160D02*
D03*
X141160Y138900D02*
D03*
X148640D02*
D03*
X127560Y143000D02*
D03*
X135040D02*
D03*
X154500Y192800D02*
D03*
X161980D02*
D03*
X127560Y151800D02*
D03*
X135040D02*
D03*
X131224Y201200D02*
D03*
X138704D02*
D03*
D17*
X162880Y157340D02*
D03*
Y149860D02*
D03*
X188600Y180240D02*
D03*
Y172760D02*
D03*
X197300Y180240D02*
D03*
Y172760D02*
D03*
X184300Y186460D02*
D03*
Y193940D02*
D03*
X192900Y193940D02*
D03*
Y186460D02*
D03*
D18*
X175953Y185200D02*
D03*
X170047D02*
D03*
X176206Y174100D02*
D03*
X170300D02*
D03*
D21*
X122400Y178953D02*
D03*
Y173047D02*
D03*
X131400Y165353D02*
D03*
Y159447D02*
D03*
X131400Y193600D02*
D03*
Y187695D02*
D03*
D47*
X158087Y182890D02*
D03*
Y180921D02*
D03*
Y178953D02*
D03*
Y176984D02*
D03*
Y175016D02*
D03*
Y173047D02*
D03*
Y171079D02*
D03*
Y169110D02*
D03*
X138913D02*
D03*
Y171079D02*
D03*
Y173047D02*
D03*
Y175016D02*
D03*
Y176984D02*
D03*
Y178953D02*
D03*
Y180921D02*
D03*
Y182890D02*
D03*
D48*
X155390Y166413D02*
D03*
X153421D02*
D03*
X151453D02*
D03*
X149484D02*
D03*
X147516D02*
D03*
X145547D02*
D03*
X143579D02*
D03*
X141610D02*
D03*
Y185587D02*
D03*
X143579D02*
D03*
X145547D02*
D03*
X147516D02*
D03*
X149484D02*
D03*
X151453D02*
D03*
X153421D02*
D03*
X155390D02*
D03*
D49*
X148500Y176000D02*
D03*
D50*
X179715Y164700D02*
D03*
X169085D02*
D03*
M02*
